<mxfile host="app.diagrams.net" modified="2023-05-01T14:41:56.544Z" agent="Mozilla/5.0 (X11; Linux x86_64) AppleWebKit/537.36 (KHTML, like Gecko) Chrome/112.0.0.0 Safari/537.36 OPR/98.0.0.0" version="21.2.3" etag="Y89FfS8HVcNwvvqrdhjy" type="github">
  <diagram name="Page-1" id="sBSpOTI2fBxhot7bye2U">
    <mxGraphModel>
      <root>
        <mxCell id="0" />
        <mxCell id="1" parent="0" />
      </root>
    </mxGraphModel>
  </diagram>
</mxfile>
